<svg width="88" height="96" viewBox="0 0 88 96" fill="none" xmlns="http://www.w3.org/2000/svg">
<path d="M80 3.31718C75.56 1.35208 70.68 0.509888 66 0.509888C58.2 0.509888 49.8 2.75572 44 8.93176C38.2 2.75572 29.8 0.509888 22 0.509888C14.2 0.509888 5.8 2.75572 0 8.93176V91.1854C0 92.5891 1 93.9927 2 93.9927C2.4 93.9927 2.6 93.712 3 93.712C8.4 90.0625 16.2 87.5359 22 87.5359C29.8 87.5359 38.2 89.7818 44 95.9578C49.4 91.1854 59.2 87.5359 66 87.5359C72.6 87.5359 79.4 89.2203 85 93.4312C85.4 93.712 85.6 93.712 86 93.712C87 93.712 88 92.3083 88 90.9047V8.93176C85.6 6.4052 83 4.72083 80 3.31718ZM80 79.1141C75.6 77.1489 70.8 76.3068 66 76.3068C59.2 76.3068 49.4 79.9562 44 84.7286V20.1609C49.4 15.3885 59.2 11.7391 66 11.7391C70.8 11.7391 75.6 12.5812 80 14.5463V79.1141Z" fill="#0D61DF"/>
<path d="M66 34.1974C69.52 34.1974 72.92 34.7027 76 35.6572V27.123C72.84 26.2808 69.44 25.7755 66 25.7755C59.2 25.7755 53.04 27.4037 48 30.4356V39.7558C52.52 36.1625 58.8 34.1974 66 34.1974Z" fill="#0D61DF"/>
<path d="M48 45.3704V54.6906C52.52 51.0973 58.8 49.1322 66 49.1322C69.52 49.1322 72.92 49.6375 76 50.592V42.0578C72.84 41.2156 69.44 40.7103 66 40.7103C59.2 40.7103 53.04 42.3947 48 45.3704Z" fill="#0D61DF"/>
<path d="M66 55.7013C59.2 55.7013 53.04 57.3295 48 60.3614V69.6816C52.52 66.0883 58.8 64.1232 66 64.1232C69.52 64.1232 72.92 64.6285 76 65.583V57.0488C72.84 56.1505 69.44 55.7013 66 55.7013Z" fill="#0D61DF"/>
</svg>
