<svg width="44" height="56" viewBox="0 0 44 56" fill="none" xmlns="http://www.w3.org/2000/svg">
<g filter="url(#filter0_d_248_25)">
<rect x="4" width="35.1013" height="48" rx="4" fill="#0D61DF"/>
</g>
<g filter="url(#filter1_d_248_25)">
<path d="M30.3774 18.0883L23.4554 29.9117H19.6457L12.7236 18.0883H16.1932C16.5106 18.0883 16.7714 18.1382 16.9755 18.2381C17.1909 18.3379 17.3327 18.4647 17.4007 18.6184L20.7682 24.9334C20.9496 25.3021 21.1083 25.6632 21.2444 26.0166C21.3805 26.37 21.4995 26.7234 21.6016 27.0768C21.7149 26.7234 21.8397 26.37 21.9757 26.0166C22.1118 25.6632 22.2762 25.3021 22.4689 24.9334L25.9045 18.6184C25.9838 18.4647 26.1256 18.3379 26.3296 18.2381C26.5337 18.1382 26.7775 18.0883 27.061 18.0883H30.3774Z" fill="white"/>
</g>
<defs>
<filter id="filter0_d_248_25" x="0" y="0" width="43.1013" height="56" filterUnits="userSpaceOnUse" color-interpolation-filters="sRGB">
<feFlood flood-opacity="0" result="BackgroundImageFix"/>
<feColorMatrix in="SourceAlpha" type="matrix" values="0 0 0 0 0 0 0 0 0 0 0 0 0 0 0 0 0 0 127 0" result="hardAlpha"/>
<feOffset dy="4"/>
<feGaussianBlur stdDeviation="2"/>
<feComposite in2="hardAlpha" operator="out"/>
<feColorMatrix type="matrix" values="0 0 0 0 0 0 0 0 0 0 0 0 0 0 0 0 0 0 0.25 0"/>
<feBlend mode="normal" in2="BackgroundImageFix" result="effect1_dropShadow_248_25"/>
<feBlend mode="normal" in="SourceGraphic" in2="effect1_dropShadow_248_25" result="shape"/>
</filter>
<filter id="filter1_d_248_25" x="8.72363" y="18.0883" width="25.6538" height="19.8234" filterUnits="userSpaceOnUse" color-interpolation-filters="sRGB">
<feFlood flood-opacity="0" result="BackgroundImageFix"/>
<feColorMatrix in="SourceAlpha" type="matrix" values="0 0 0 0 0 0 0 0 0 0 0 0 0 0 0 0 0 0 127 0" result="hardAlpha"/>
<feOffset dy="4"/>
<feGaussianBlur stdDeviation="2"/>
<feComposite in2="hardAlpha" operator="out"/>
<feColorMatrix type="matrix" values="0 0 0 0 0 0 0 0 0 0 0 0 0 0 0 0 0 0 0.25 0"/>
<feBlend mode="normal" in2="BackgroundImageFix" result="effect1_dropShadow_248_25"/>
<feBlend mode="normal" in="SourceGraphic" in2="effect1_dropShadow_248_25" result="shape"/>
</filter>
</defs>
</svg>
