<svg width="44" height="44" viewBox="0 0 44 44" fill="none" xmlns="http://www.w3.org/2000/svg">
<path d="M21.7669 21.7669C25.0053 21.7669 27.6282 19.144 27.6282 15.9057C27.6282 12.6673 25.0053 10.0444 21.7669 10.0444C18.5286 10.0444 15.9057 12.6673 15.9057 15.9057C15.9057 19.144 18.5286 21.7669 21.7669 21.7669ZM21.7669 24.6975C17.8545 24.6975 10.0444 26.6611 10.0444 30.5588V33.4894H33.4894V30.5588C33.4894 26.6611 25.6793 24.6975 21.7669 24.6975Z" fill="#0D61DF"/>
<path d="M42.4349 21.767C42.4349 33.1816 33.1816 42.4349 21.767 42.4349C10.3523 42.4349 1.09898 33.1816 1.09898 21.767C1.09898 10.3523 10.3523 1.09898 21.767 1.09898C33.1816 1.09898 42.4349 10.3523 42.4349 21.767Z" stroke="#0D61DF" stroke-width="2.19797"/>
</svg>
