<svg width="134" height="29" viewBox="0 0 134 29" fill="none" xmlns="http://www.w3.org/2000/svg">
<path d="M0.364425 28V2.07374H5.84591V23.4806H16.9608V28H0.364425ZM18.3506 28V8.5553H23.7435V28H18.3506ZM21.0597 6.04876C20.258 6.04876 19.5702 5.78291 18.9963 5.25122C18.4308 4.71109 18.1481 4.06547 18.1481 3.31435C18.1481 2.57167 18.4308 1.93449 18.9963 1.4028C19.5702 0.862664 20.258 0.592598 21.0597 0.592598C21.8615 0.592598 22.5451 0.862664 23.1105 1.4028C23.6844 1.93449 23.9714 2.57167 23.9714 3.31435C23.9714 4.06547 23.6844 4.71109 23.1105 5.25122C22.5451 5.78291 21.8615 6.04876 21.0597 6.04876ZM26.0259 28V2.07374H31.4187V11.8214H31.5833C31.8196 11.2982 32.1614 10.7665 32.6087 10.2263C33.0644 9.67776 33.6552 9.22203 34.381 8.85913C35.1152 8.48779 36.0267 8.30212 37.1154 8.30212C38.5332 8.30212 39.8414 8.67346 41.0398 9.41614C42.2382 10.1504 43.1961 11.2602 43.9135 12.7455C44.6308 14.2225 44.9895 16.0749 44.9895 18.303C44.9895 20.4719 44.6393 22.3033 43.9388 23.7971C43.2467 25.2825 42.3015 26.4091 41.1031 27.1771C39.9131 27.9367 38.5797 28.3165 37.1027 28.3165C36.0562 28.3165 35.1659 28.1435 34.4316 27.7975C33.7058 27.4514 33.1108 27.0168 32.6467 26.4935C32.1825 25.9619 31.828 25.4259 31.5833 24.8858H31.3428V28H26.0259ZM31.3048 18.2777C31.3048 19.4339 31.4651 20.4424 31.7858 21.3032C32.1065 22.1641 32.5707 22.835 33.1784 23.3161C33.786 23.7887 34.5245 24.025 35.3937 24.025C36.2715 24.025 37.0141 23.7845 37.6218 23.3034C38.2294 22.8139 38.6894 22.1387 39.0016 21.2779C39.3223 20.4086 39.4827 19.4086 39.4827 18.2777C39.4827 17.1552 39.3266 16.1678 39.0143 15.3154C38.702 14.463 38.2421 13.7963 37.6344 13.3152C37.0268 12.8341 36.2799 12.5936 35.3937 12.5936C34.516 12.5936 33.7733 12.8257 33.1657 13.2899C32.5665 13.7541 32.1065 14.4123 31.7858 15.2647C31.4651 16.1171 31.3048 17.1214 31.3048 18.2777ZM46.449 28V8.5553H51.6773V11.948H51.8798C52.2343 10.7411 52.8293 9.82967 53.6648 9.21359C54.5003 8.58906 55.4624 8.2768 56.5511 8.2768C56.8212 8.2768 57.1123 8.29368 57.4246 8.32744C57.7369 8.36119 58.0112 8.40761 58.2475 8.46669V13.2519C57.9943 13.176 57.644 13.1084 57.1967 13.0494C56.7494 12.9903 56.3401 12.9607 55.9688 12.9607C55.1755 12.9607 54.4665 13.1338 53.842 13.4798C53.2259 13.8174 52.7364 14.29 52.3735 14.8976C52.0191 15.5053 51.8419 16.2057 51.8419 16.9991V28H46.449ZM63.8845 28.3671C62.6439 28.3671 61.5383 28.1519 60.5678 27.7215C59.5972 27.2826 58.8292 26.637 58.2638 25.7846C57.7068 24.9238 57.4283 23.852 57.4283 22.5692C57.4283 21.4889 57.6266 20.5816 58.0233 19.8474C58.4199 19.1132 58.9601 18.5224 59.6437 18.0751C60.3273 17.6278 61.1037 17.2902 61.973 17.0624C62.8507 16.8345 63.7706 16.6741 64.7327 16.5813C65.8636 16.4632 66.7751 16.3534 67.4671 16.2522C68.1592 16.1424 68.6613 15.9821 68.9736 15.7711C69.2858 15.5601 69.442 15.2479 69.442 14.8343V14.7584C69.442 13.9566 69.1888 13.3363 68.6824 12.8974C68.1845 12.4586 67.4756 12.2392 66.5556 12.2392C65.5851 12.2392 64.8129 12.4544 64.239 12.8848C63.6651 13.3068 63.2853 13.8385 63.0996 14.4799L58.1119 14.0748C58.3651 12.8932 58.863 11.872 59.6057 11.0112C60.3484 10.1419 61.3062 9.47521 62.4793 9.01104C63.6609 8.53842 65.0281 8.30212 66.581 8.30212C67.6612 8.30212 68.6951 8.42871 69.6825 8.6819C70.6784 8.93508 71.5603 9.32752 72.3283 9.85921C73.1047 10.3909 73.7166 11.0745 74.1639 11.91C74.6112 12.7371 74.8348 13.7287 74.8348 14.885V28H69.7205V25.3036H69.5686C69.2563 25.9112 68.8385 26.4471 68.3153 26.9113C67.792 27.367 67.1633 27.7257 66.429 27.9873C65.6948 28.2405 64.8466 28.3671 63.8845 28.3671ZM65.429 24.6453C66.2223 24.6453 66.9228 24.4892 67.5304 24.1769C68.1381 23.8562 68.6149 23.4258 68.9609 22.8856C69.3069 22.3455 69.4799 21.7336 69.4799 21.05V18.9866C69.3112 19.0963 69.0791 19.1976 68.7837 19.2904C68.4967 19.3748 68.1718 19.455 67.8089 19.5309C67.446 19.5984 67.0831 19.6617 66.7202 19.7208C66.3573 19.7715 66.0282 19.8179 65.7328 19.8601C65.0998 19.9529 64.547 20.1006 64.0744 20.3031C63.6018 20.5057 63.2347 20.78 62.9731 21.126C62.7114 21.4636 62.5806 21.8856 62.5806 22.3919C62.5806 23.1262 62.8465 23.6874 63.3782 24.0756C63.9183 24.4554 64.6019 24.6453 65.429 24.6453ZM80.032 28.3291C79.1965 28.3291 78.4791 28.0338 77.8799 27.443C77.2891 26.8438 76.9937 26.1264 76.9937 25.2909C76.9937 24.4638 77.2891 23.7549 77.8799 23.1641C78.4791 22.5734 79.1965 22.278 80.032 22.278C80.8422 22.278 81.5511 22.5734 82.1587 23.1641C82.7664 23.7549 83.0702 24.4638 83.0702 25.2909C83.0702 25.8479 82.9267 26.3585 82.6398 26.8227C82.3613 27.2784 81.9942 27.6455 81.5384 27.924C81.0827 28.1941 80.5805 28.3291 80.032 28.3291ZM85.3589 28V8.5553H90.4986V11.986H90.7264C91.1315 10.8466 91.8067 9.94783 92.7519 9.28954C93.6971 8.63126 94.828 8.30212 96.1446 8.30212C97.4781 8.30212 98.6132 8.63548 99.55 9.3022C100.487 9.96049 101.111 10.8551 101.424 11.986H101.626C102.023 10.872 102.74 9.98159 103.778 9.31486C104.825 8.6397 106.061 8.30212 107.487 8.30212C109.302 8.30212 110.775 8.88023 111.905 10.0364C113.045 11.1842 113.614 12.8131 113.614 14.9229V28H108.234V15.9863C108.234 14.9061 107.947 14.0959 107.373 13.5557C106.8 13.0156 106.082 12.7455 105.221 12.7455C104.242 12.7455 103.479 13.0578 102.93 13.6823C102.381 14.2984 102.107 15.1128 102.107 16.1256V28H96.8789V15.8724C96.8789 14.9187 96.6046 14.1592 96.056 13.5937C95.5159 13.0283 94.8027 12.7455 93.9166 12.7455C93.3174 12.7455 92.7772 12.8974 92.2962 13.2013C91.8236 13.4967 91.448 13.9144 91.1695 14.4545C90.891 14.9862 90.7517 15.6108 90.7517 16.3281V28H85.3589ZM124.597 28.3798C122.597 28.3798 120.875 27.9747 119.432 27.1645C117.997 26.3459 116.892 25.1896 116.115 23.6958C115.339 22.1936 114.951 20.4171 114.951 18.3663C114.951 16.3661 115.339 14.6107 116.115 13.1C116.892 11.5893 117.985 10.412 119.394 9.56805C120.812 8.72409 122.474 8.30212 124.382 8.30212C125.665 8.30212 126.859 8.50889 127.964 8.92242C129.078 9.32752 130.049 9.93939 130.876 10.758C131.711 11.5767 132.361 12.6063 132.825 13.8469C133.29 15.0791 133.522 16.5222 133.522 18.1764V19.6575H117.103V16.3155H128.445C128.445 15.539 128.277 14.8512 127.939 14.252C127.601 13.6528 127.133 13.1844 126.534 12.8468C125.943 12.5008 125.255 12.3278 124.47 12.3278C123.652 12.3278 122.926 12.5177 122.293 12.8974C121.668 13.2688 121.179 13.7709 120.824 14.4039C120.47 15.0284 120.289 15.7247 120.28 16.4927V19.6702C120.28 20.6323 120.457 21.4636 120.812 22.1641C121.175 22.8645 121.685 23.4047 122.344 23.7845C123.002 24.1642 123.783 24.3541 124.686 24.3541C125.285 24.3541 125.833 24.2697 126.331 24.1009C126.829 23.9321 127.255 23.679 127.61 23.3414C127.964 23.0038 128.234 22.5903 128.42 22.1008L133.408 22.4299C133.155 23.6283 132.636 24.6748 131.851 25.5694C131.074 26.4556 130.07 27.1476 128.838 27.6455C127.614 28.135 126.2 28.3798 124.597 28.3798Z" fill="#0D61DF"/>
</svg>
